<?xml version="1.0" encoding="utf-8"?>
<!-- Generator: Adobe Illustrator 24.0.0, SVG Export Plug-In . SVG Version: 6.00 Build 0)  -->
<svg version="1.1" id="Layer_1" xmlns="http://www.w3.org/2000/svg" xmlns:xlink="http://www.w3.org/1999/xlink" x="0px" y="0px"
	 viewBox="0 0 32 32" style="enable-background:new 0 0 32 32;" xml:space="preserve">
<style type="text/css">
	.st0{fill:#40683C;}
	.st1{fill:#93D500;}
	.st2{fill:#6BA43A;}
	.st3{clip-path:url(#SVGID_2_);fill:#FFB71B;}
	.st4{clip-path:url(#SVGID_2_);fill:#40683C;}
	.st5{clip-path:url(#SVGID_2_);fill:#A25230;}
</style>
<g>
	<rect x="0" class="st0" width="32" height="32"/>
	<path class="st1" d="M32,32V12.41h-2.02c-2.69-0.48-5.38-0.96-8.08-1.44c-2.85-0.51-5.73-0.82-8.53-1.76
		c-2.3-0.78-4.57-1.84-6.89-2.39C4.33,6.32,2.16,6.27,0,6.57v5.84V32H32z"/>
	<path class="st2" d="M32,7.33c-6.46,1.86-13.54,8.47-19.75,11.89H0V32h32V7.33z"/>
	<rect x="0" y="19.82" class="st1" width="32" height="12.17"/>
	<path class="st2" d="M32,28.66c-9.55-3.07-21.57-16.17-31.99-17.72c0,0-0.01,0-0.01,0V32h32V28.66z"/>
	<g>
		<defs>
			<rect id="SVGID_1_" x="0" y="0" width="32" height="32"/>
		</defs>
		<clipPath id="SVGID_2_">
			<use xlink:href="#SVGID_1_"  style="overflow:visible;"/>
		</clipPath>
		<rect x="-0.68" y="19.91" class="st3" width="1.84" height="12.15"/>
		<rect x="30.84" y="19.91" class="st3" width="1.84" height="12.15"/>
		<path class="st3" d="M31.05,20.05v4.39h-0.06c-1.21-1.84-3.36-3.07-5.81-3.07c-2.45,0-4.6,1.23-5.81,3.07h0v-4.39H31.05z"/>
		<path class="st3" d="M0.96,20.05v4.51h0.06c1.21-1.84,3.36-3.07,5.81-3.07c2.45,0,4.6,1.23,5.81,3.07h0v-4.51H0.96z"/>
		<polygon class="st4" points="33.78,19.21 32.87,20.05 19.35,20.05 19.35,19.21 		"/>
		<polygon class="st5" points="29.52,16 34.47,19.36 29.52,19.36 24.56,19.36 19.37,19.36 19.37,16 		"/>
		<polygon class="st4" points="-1.99,19.19 -0.88,20.05 12.63,20.05 12.63,19.19 		"/>
		<polygon class="st5" points="2.49,16 -2.47,19.36 2.49,19.36 7.44,19.36 12.63,19.36 12.63,16 		"/>
		<rect x="12.63" y="15.97" class="st3" width="6.74" height="16.17"/>
		<polygon class="st4" points="11.34,15.16 12.45,16 19.55,16 20.66,15.16 		"/>
		<path class="st4" d="M17.37,16.95c-0.34,0-0.61,0.27-0.61,0.61v0.95v1.17v2.17h1.22v-2.17v-1.17v-0.95
			C17.97,17.22,17.7,16.95,17.37,16.95"/>
		<path class="st4" d="M14.64,16.95c-0.34,0-0.61,0.27-0.61,0.61v0.95v1.17v2.17h1.22v-2.17v-1.17v-0.95
			C15.25,17.22,14.98,16.95,14.64,16.95"/>
		<polygon class="st5" points="20.96,15.3 16,11.94 11.05,15.3 		"/>
		<polygon class="st4" points="11.52,23.76 12.63,24.6 19.37,24.6 20.41,23.76 		"/>
		<path class="st4" d="M15.95,26.49L15.95,26.49c-0.97,0-1.76,0.79-1.76,1.76v0.03v0.03v4.27h3.51v-4.27v-0.03v-0.03
			C17.71,27.28,16.92,26.49,15.95,26.49"/>
	</g>
</g>
</svg>
